<?xml version="1.0" standalone="no"?>
<!DOCTYPE svg PUBLIC "-//W3C//DTD SVG 20010904//EN"
 "http://www.w3.org/TR/2001/REC-SVG-20010904/DTD/svg10.dtd">
<svg version="1.0" xmlns="http://www.w3.org/2000/svg"
 width="1080.000000pt" height="1080.000000pt" viewBox="0 0 1080.000000 1080.000000"
 preserveAspectRatio="xMidYMid meet">

<g transform="translate(0.000000,1080.000000) scale(0.100000,-0.100000)"
fill="#000000" stroke="none">
<path d="M10445 10270 c3 -5 10 -10 16 -10 5 0 9 5 9 10 0 6 -7 10 -16 10 -8
0 -12 -4 -9 -10z"/>
<path d="M10183 9978 c-21 -10 -34 -58 -15 -58 32 1 50 15 54 41 5 31 -3 34
-39 17z"/>
<path d="M10260 9976 c0 -9 7 -12 20 -9 31 8 34 23 6 23 -16 0 -26 -6 -26 -14z"/>
<path d="M10436 9938 c-3 -29 -6 -97 -6 -150 0 -92 1 -98 20 -98 11 0 29 -5
39 -12 28 -17 53 -3 49 29 -2 19 -11 29 -33 36 -52 17 -55 23 -55 117 0 66 4
91 15 100 20 17 19 30 -4 30 -15 0 -19 -10 -25 -52z"/>
<path d="M10520 9979 c0 -14 30 -38 48 -39 22 0 12 30 -14 40 -32 13 -34 12
-34 -1z"/>
<path d="M10098 9948 c-23 -8 -28 -16 -28 -43 0 -33 1 -34 30 -24 25 9 30 16
30 45 0 19 -1 34 -2 33 -2 0 -15 -5 -30 -11z"/>
<path d="M10610 9943 c0 -10 14 -26 30 -35 25 -14 30 -15 30 -3 0 8 0 18 1 23
0 4 -13 13 -30 20 -28 11 -31 10 -31 -5z"/>
<path d="M10012 9911 c-19 -12 -11 -55 11 -59 14 -3 17 4 17 32 0 37 -5 42
-28 27z"/>
<path d="M10703 9905 c4 -9 7 -20 7 -24 0 -6 63 -41 75 -41 3 0 5 11 5 25 0
25 -7 31 -69 50 -20 6 -23 4 -18 -10z"/>
<path d="M10275 9738 c-11 -6 -21 -12 -23 -13 -1 -1 2 -14 8 -29 8 -23 13 -25
30 -16 13 7 20 21 20 40 0 33 -5 35 -35 18z"/>
<path d="M10415 9580 c-3 -5 -1 -10 4 -10 6 0 11 5 11 10 0 6 -2 10 -4 10 -3
0 -8 -4 -11 -10z"/>
<path d="M10358 9472 c-14 -16 -12 -50 3 -68 5 -6 21 -9 35 -6 30 5 51 47 34
67 -17 20 -58 24 -72 7z"/>
<path d="M10343 9323 c-25 -5 -37 -33 -28 -63 9 -27 60 -27 75 -1 10 19 -5 73
-19 70 -3 -1 -16 -4 -28 -6z"/>
<path d="M10262 9158 c-30 -30 0 -85 40 -75 26 7 47 52 31 68 -16 15 -58 20
-71 7z"/>
<path d="M10170 9011 c-25 -47 2 -81 48 -62 24 10 28 17 24 41 -3 18 -11 30
-26 34 -31 9 -34 8 -46 -13z"/>
<path d="M10044 8886 c-3 -8 -4 -25 -2 -38 2 -18 10 -24 36 -26 27 -3 34 1 42
22 5 14 7 33 4 41 -8 20 -73 20 -80 1z"/>
<path d="M9914 8786 c-3 -8 -4 -25 -2 -38 2 -19 9 -23 38 -23 33 0 35 2 38 38
3 36 3 37 -33 37 -22 0 -38 -6 -41 -14z"/>
<path d="M9786 8694 c-32 -32 -10 -79 35 -72 32 5 45 31 31 62 -13 29 -43 34
-66 10z"/>
<path d="M9641 8582 c-14 -26 5 -52 39 -52 34 0 53 26 39 52 -13 24 -65 24
-78 0z"/>
<path d="M9506 8484 c-3 -8 -3 -26 0 -40 9 -34 60 -34 76 0 6 14 8 32 5 40 -9
22 -73 22 -81 0z"/>
<path d="M9380 8386 c-6 -8 -10 -25 -8 -38 2 -18 10 -24 39 -26 42 -4 54 13
39 53 -11 28 -50 34 -70 11z"/>
<path d="M9268 8274 c-30 -16 -35 -33 -16 -52 19 -19 56 -14 69 9 9 18 8 25
-7 40 -17 16 -22 16 -46 3z"/>
<path d="M9141 8148 c-20 -32 -20 -32 1 -46 27 -19 52 -5 56 31 2 18 -3 29
-17 37 -18 9 -24 6 -40 -22z"/>
<path d="M9022 8038 c-15 -15 -16 -50 -1 -65 31 -31 96 29 68 63 -14 17 -51
18 -67 2z"/>
<path d="M8922 7908 c-16 -16 -15 -40 3 -64 15 -19 16 -18 40 9 31 35 31 41 0
55 -31 15 -28 15 -43 0z"/>
<path d="M8820 7765 c-20 -24 3 -67 32 -63 25 3 41 45 25 66 -13 17 -42 15
-57 -3z"/>
<path d="M8744 7632 c-15 -9 -21 -43 -11 -59 5 -7 16 -13 26 -13 26 0 39 21
31 50 -6 26 -26 36 -46 22z"/>
<path d="M8658 7464 c-16 -35 7 -59 45 -45 41 16 33 47 -16 64 -13 5 -21 0
-29 -19z"/>
<path d="M8597 7324 c-4 -4 -7 -20 -7 -35 0 -36 37 -51 57 -23 21 29 12 58
-17 62 -14 2 -29 0 -33 -4z"/>
<path d="M8855 7193 c-11 -2 -54 -15 -95 -30 -226 -77 -403 -286 -451 -531
-17 -92 -7 -280 21 -362 94 -277 325 -466 598 -487 264 -20 524 133 646 380
65 131 79 203 73 362 -4 109 -9 142 -32 205 -104 287 -361 473 -649 469 -50
-1 -100 -3 -111 -6z m-92 -293 c39 -43 38 -101 -2 -141 -25 -25 -37 -29 -81
-29 -44 0 -56 4 -81 29 -32 33 -38 79 -17 127 28 61 132 69 181 14z m507 -221
c57 -13 104 -49 133 -102 20 -39 22 -57 25 -260 l3 -218 -98 3 -98 3 -5 180
c-3 117 -9 188 -17 202 -27 47 -102 41 -134 -10 -17 -28 -19 -52 -19 -205 l0
-173 -97 3 -98 3 -3 283 -2 282 100 0 c93 0 100 -1 100 -20 0 -25 4 -25 39 1
48 35 102 44 171 28z m-490 -294 l0 -285 -100 0 -100 0 0 285 0 285 100 0 100
0 0 -285z"/>
<path d="M8523 7154 c-20 -30 -3 -54 37 -54 57 0 61 62 5 73 -20 3 -30 -1 -42
-19z"/>
<path d="M8344 7145 c-9 -23 13 -43 41 -37 34 6 42 22 20 39 -25 17 -54 17
-61 -2z"/>
<path d="M8190 7108 l-24 -22 30 -12 c38 -16 62 2 45 35 -15 26 -22 26 -51 -1z"/>
<path d="M9449 7028 c77 -76 113 -127 156 -221 54 -117 68 -196 63 -344 -4
-110 -9 -140 -35 -216 -43 -121 -85 -189 -178 -282 -94 -95 -198 -154 -322
-184 -92 -22 -79 -37 23 -27 276 28 525 259 588 543 20 90 20 236 1 328 -25
115 -95 244 -184 335 -67 68 -147 130 -168 130 -4 0 21 -28 56 -62z"/>
<path d="M8030 7054 c-11 -12 -11 -18 1 -29 13 -13 18 -13 37 1 18 13 21 19
11 30 -15 18 -33 18 -49 -2z"/>
<path d="M7883 7003 c-21 -8 -15 -51 7 -58 28 -9 40 2 40 36 0 29 -14 36 -47
22z"/>
<path d="M7727 6923 c-10 -9 -8 -41 2 -47 15 -9 61 12 61 28 0 7 -10 16 -22
20 -29 7 -33 7 -41 -1z"/>
<path d="M7587 6833 c-24 -23 12 -55 38 -33 12 10 13 16 4 26 -12 15 -31 18
-42 7z"/>
<path d="M7445 6745 c-20 -15 -20 -15 0 -30 17 -14 21 -14 34 0 14 13 14 17 0
30 -13 14 -17 14 -34 0z"/>
<path d="M7295 6656 c-15 -11 -17 -18 -9 -26 18 -19 59 -8 59 15 0 25 -24 30
-50 11z"/>
<path d="M7144 6565 c-8 -21 4 -35 31 -35 32 0 42 20 20 37 -24 17 -44 17 -51
-2z"/>
<path d="M7004 6475 c-8 -20 4 -35 26 -35 25 0 35 17 20 35 -16 19 -39 19 -46
0z"/>
<path d="M9772 6380 c0 -19 2 -27 5 -17 2 9 2 25 0 35 -3 9 -5 1 -5 -18z"/>
<path d="M6870 6384 c-11 -12 -11 -18 1 -29 13 -13 18 -13 37 1 22 15 22 17 5
30 -23 17 -28 17 -43 -2z"/>
<path d="M9747 6264 c-74 -282 -313 -490 -605 -524 -57 -6 -60 -8 -22 -9 73
-1 176 25 269 70 72 35 101 57 176 133 63 63 102 112 127 161 37 71 83 206 76
225 -2 6 -11 -19 -21 -56z"/>
<path d="M6733 6284 c-3 -8 1 -22 9 -30 13 -13 16 -13 27 0 7 9 11 23 7 31 -7
20 -35 19 -43 -1z"/>
<path d="M6607 6193 c-9 -8 -9 -48 -1 -56 15 -15 41 13 37 38 -5 24 -22 33
-36 18z"/>
<path d="M6467 6066 c-8 -21 14 -35 41 -25 26 10 29 24 6 33 -25 10 -41 7 -47
-8z"/>
<path d="M6365 5950 c-20 -22 -19 -25 12 -34 25 -8 34 3 26 32 -7 27 -15 28
-38 2z"/>
<path d="M6245 5840 c-8 -12 3 -50 14 -50 11 0 31 47 24 54 -10 9 -31 7 -38
-4z"/>
<path d="M9013 5743 c9 -2 23 -2 30 0 6 3 -1 5 -18 5 -16 0 -22 -2 -12 -5z"/>
<path d="M6141 5711 c-12 -8 -12 -12 -2 -25 17 -20 37 -20 45 0 11 30 -13 44
-43 25z"/>
<path d="M6046 5571 c-19 -7 -18 -8 4 -24 27 -19 40 -14 40 14 0 20 -12 23
-44 10z"/>
<path d="M5972 5415 c-15 -33 -15 -32 5 -39 21 -8 31 8 25 40 -6 31 -16 31
-30 -1z"/>
<path d="M5886 5262 c-2 -4 -1 -14 4 -22 7 -11 13 -12 36 -1 22 10 25 14 13
22 -17 11 -46 12 -53 1z"/>
<path d="M5845 5100 c-8 -24 7 -46 24 -36 15 10 14 31 -3 45 -11 10 -16 8 -21
-9z"/>
<path d="M6205 5000 c-307 -47 -535 -292 -553 -591 -11 -204 61 -380 212 -515
67 -60 212 -144 235 -136 9 3 11 0 7 -7 -6 -8 0 -10 21 -6 23 5 25 4 13 -5
-13 -10 -13 -11 1 -7 9 3 73 2 143 -3 95 -6 138 -5 176 5 68 18 183 73 176 84
-3 5 11 21 32 36 88 66 170 175 216 289 13 31 26 52 30 48 4 -4 5 11 2 33 -4
22 -3 32 1 23 5 -10 8 38 8 106 0 68 -3 122 -7 119 -5 -2 -8 8 -8 22 0 47 -61
181 -113 251 -116 153 -281 242 -477 257 -36 3 -87 2 -115 -3z m200 -115 c102
-26 184 -73 256 -144 78 -79 122 -162 146 -276 45 -220 -69 -457 -270 -565
-36 -19 -68 -32 -71 -29 -3 3 -9 49 -14 102 -8 82 -13 102 -33 124 -24 25 -24
25 -2 19 26 -8 95 3 88 14 -3 4 10 14 28 21 48 20 108 79 128 127 36 84 17
216 -40 266 -18 16 -21 30 -21 98 0 75 -1 78 -24 78 -13 0 -50 -13 -82 -30
-51 -25 -63 -28 -99 -20 -51 12 -149 12 -200 0 -36 -8 -48 -5 -99 20 -32 17
-71 30 -87 30 -25 0 -28 -4 -34 -44 -4 -24 -4 -58 0 -75 6 -27 2 -37 -29 -71
-68 -76 -70 -175 -5 -273 42 -63 145 -127 206 -127 16 0 22 -4 17 -11 -5 -9 1
-10 20 -5 27 7 27 6 -10 -30 -32 -33 -43 -38 -86 -38 -47 -1 -51 2 -98 52 -32
35 -56 52 -72 52 l-23 0 23 -18 c13 -10 36 -40 50 -67 15 -27 41 -57 57 -66
36 -20 130 -36 120 -20 -3 6 -1 11 4 11 7 0 11 -26 11 -65 0 -60 -2 -65 -21
-65 -47 0 -154 64 -225 135 -72 71 -142 191 -130 222 3 8 2 12 -3 9 -5 -3 -11
11 -15 32 -7 44 -6 226 1 197 4 -14 11 -1 25 43 10 35 26 65 34 68 52 16 51
14 31 29 -17 12 -17 15 -2 45 9 18 35 53 58 78 23 25 35 41 26 36 -16 -9 -64
-63 -102 -115 -10 -13 -15 -17 -11 -9 18 38 76 108 116 139 23 19 34 25 24 13
-22 -25 -11 -30 14 -7 10 9 46 31 81 50 35 19 60 35 54 35 -5 0 -3 5 5 10 8 5
22 9 30 9 10 0 9 -3 -5 -10 -17 -8 -16 -9 5 -4 14 4 68 9 120 13 l95 7 -75 6
-75 5 65 2 c36 1 93 -5 125 -13z m-202 -2 c-7 -2 -19 -2 -25 0 -7 3 -2 5 12 5
14 0 19 -2 13 -5z m-134 -36 c-16 -13 -79 -48 -79 -44 0 7 63 47 74 47 5 0 7
-1 5 -3z m-268 -288 c-11 -24 -20 -41 -20 -37 -1 12 31 89 35 85 3 -2 -4 -24
-15 -48z m-24 -71 c-3 -8 -6 -5 -6 6 -1 11 2 17 5 13 3 -3 4 -12 1 -19z m686
-365 c-7 -2 -19 -2 -25 0 -7 3 -2 5 12 5 14 0 19 -2 13 -5z m122 -328 c-22
-14 -44 -25 -50 -25 -12 0 66 48 80 49 6 0 -8 -11 -30 -24z m-110 -45 c-11 -5
-27 -9 -35 -9 -9 0 -8 4 5 9 11 5 27 9 35 9 9 0 8 -4 -5 -9z m-62 -17 c-7 -2
-19 -2 -25 0 -7 3 -2 5 12 5 14 0 19 -2 13 -5z"/>
<path d="M6133 4713 c9 -2 23 -2 30 0 6 3 -1 5 -18 5 -16 0 -22 -2 -12 -5z"/>
<path d="M6613 4620 c0 -30 2 -43 4 -27 2 15 2 39 0 55 -2 15 -4 2 -4 -28z"/>
<path d="M5850 4431 c0 -17 5 -31 10 -31 6 0 10 11 10 24 0 14 -4 28 -10 31
-6 4 -10 -7 -10 -24z"/>
<path d="M6690 4358 c0 -30 1 -31 16 -16 9 9 14 24 11 32 -11 27 -27 17 -27
-16z"/>
<path d="M6681 4299 c-2 -36 -61 -109 -113 -138 -54 -31 -59 -38 -15 -22 59
22 147 131 133 164 -2 7 -5 6 -5 -4z"/>
<path d="M6701 4201 c-1 -27 2 -32 11 -23 8 8 8 17 0 34 -10 22 -11 21 -11
-11z"/>
<path d="M6024 4149 c-10 -18 11 -30 35 -21 l23 8 -26 12 c-17 8 -27 8 -32 1z"/>
<path d="M6620 4050 c-11 -7 -7 -10 18 -10 17 0 32 5 32 10 0 13 -30 13 -50 0z"/>
<path d="M6462 3980 c0 -30 2 -49 5 -42 2 6 11 12 20 12 8 0 13 5 11 11 -2 6
-8 10 -13 9 -6 0 -13 14 -16 32 -5 26 -6 22 -7 -22z"/>
<path d="M5810 4935 c0 -11 7 -15 23 -13 12 2 22 8 22 13 0 6 -10 11 -22 13
-16 2 -23 -2 -23 -13z"/>
<path d="M5630 4720 c0 -6 7 -10 15 -10 8 0 15 2 15 4 0 2 -7 6 -15 10 -8 3
-15 1 -15 -4z"/>
<path d="M5485 4670 c3 -5 10 -10 16 -10 5 0 9 5 9 10 0 6 -7 10 -16 10 -8 0
-12 -4 -9 -10z"/>
<path d="M5172 4539 c2 -6 8 -10 13 -10 5 0 11 4 13 10 2 6 -4 11 -13 11 -9 0
-15 -5 -13 -11z"/>
<path d="M6933 4360 c0 -47 2 -66 4 -42 2 23 2 61 0 85 -2 23 -4 4 -4 -43z"/>
<path d="M6866 4083 c-38 -79 -109 -168 -172 -216 -55 -43 -67 -65 -15 -28 56
40 153 156 188 225 19 37 33 70 31 72 -2 2 -17 -22 -32 -53z"/>
<path d="M4620 3245 c-113 -113 -212 -207 -220 -210 -17 -6 -63 -76 -79 -119
-19 -50 -13 -146 13 -201 30 -63 242 -275 274 -275 30 0 62 35 62 68 0 22 -22
49 -106 132 -58 58 -112 117 -120 132 -19 37 -18 77 5 113 10 17 118 131 240
254 121 122 224 233 227 246 10 39 -12 65 -54 65 -36 0 -49 -11 -242 -205z"/>
</g>
</svg>
